<svg width="138" height="28" viewBox="0 0 138 28" fill="none" xmlns="http://www.w3.org/2000/svg">
<path d="M44.3198 22.5306C43.6163 22.5306 42.9128 22.4132 42.3265 21.9438C41.8575 21.5917 41.623 21.0048 41.623 20.418V9.50262C41.623 9.38525 41.7403 9.15051 41.8575 9.15051C41.8575 9.15051 41.8575 9.15051 41.9748 9.15051H43.968C44.2025 9.15051 44.3198 9.26788 44.3198 9.50262V19.479C44.3198 19.9485 44.5543 20.1832 44.906 20.1832C45.0233 20.1832 45.2578 20.1832 45.375 20.1832C45.6095 20.1832 45.7268 20.3006 45.7268 20.418L45.9613 21.8264C45.9613 21.9438 45.844 22.1785 45.7268 22.1785C45.2578 22.4132 44.7888 22.5306 44.3198 22.5306Z" fill="#F0EFEB"/>
<path d="M55.4575 21.2395C53.4642 22.8827 50.4158 22.8827 48.4226 21.2395C46.6638 19.3616 46.6638 16.4274 48.4226 14.6668C50.4158 13.0237 53.4642 13.0237 55.4575 14.6668C57.2162 16.5447 57.2162 19.479 55.4575 21.2395ZM50.2985 19.7137C51.2365 20.5353 52.6435 20.5353 53.6987 19.7137C54.5195 18.7748 54.5195 17.249 53.6987 16.31C52.7608 15.4884 51.3538 15.4884 50.2985 16.31C49.3606 17.249 49.3606 18.7748 50.2985 19.7137Z" fill="#F0EFEB"/>
<path d="M67.6512 13.7277C67.8857 13.7277 68.0029 13.845 68.0029 14.0798V22.5304C68.0029 23.7041 67.5339 24.7604 66.7132 25.582C65.7752 26.4035 64.6028 26.7557 63.313 26.7557C62.1406 26.7557 61.0854 26.5209 60.1474 25.8167C59.3267 25.2299 58.7404 24.4083 58.6232 23.4693C58.6232 23.2346 58.6232 23.1172 58.9749 23.1172H60.9681C61.0854 23.1172 61.3198 23.2346 61.3198 23.3519C61.4371 23.7041 61.6716 24.0562 62.0233 24.1735C62.3751 24.4083 62.8441 24.5256 63.313 24.5256C63.8993 24.5256 64.3683 24.4083 64.8372 23.9388C65.189 23.5867 65.4235 22.9998 65.4235 22.5304V21.8261C64.72 22.2956 63.8993 22.6477 62.9613 22.6477C61.6716 22.6477 60.4991 22.1783 59.6784 21.3567C57.9197 19.4788 57.9197 16.6619 59.6784 14.784C60.6164 13.9624 61.7888 13.4929 62.9613 13.4929C63.8993 13.4929 64.72 13.7277 65.4235 14.3145V14.0798C65.4235 13.9624 65.5407 13.7277 65.658 13.7277C65.658 13.7277 65.658 13.7277 65.7752 13.7277H67.6512ZM63.0785 20.4177C63.6648 20.4177 64.251 20.183 64.72 19.7135C65.5407 18.6572 65.5407 17.2487 64.72 16.1924C64.3683 15.7229 63.782 15.4882 63.0785 15.4882C62.4923 15.4882 61.9061 15.7229 61.4371 16.1924C60.9681 16.6619 60.7336 17.2487 60.8509 17.953C60.8509 18.5398 61.0854 19.244 61.4371 19.7135C61.7888 20.183 62.4923 20.4177 63.0785 20.4177Z" fill="#F0EFEB"/>
<path d="M78.0864 21.2395C76.0931 22.8827 73.0447 22.8827 71.0515 21.2395C69.2927 19.3616 69.2927 16.4274 71.0515 14.6668C73.0447 13.0237 76.0931 13.0237 78.0864 14.6668C79.8451 16.5447 79.8451 19.479 78.0864 21.2395ZM72.8102 19.7137C73.2792 20.1832 73.8654 20.4179 74.4517 20.3006C75.0379 20.3006 75.6242 20.0658 76.0932 19.7137C76.9139 18.7748 76.9139 17.249 76.0932 16.31C75.6242 15.8405 75.0379 15.6058 74.4517 15.7232C73.8654 15.7232 73.1619 15.9579 72.8102 16.31C71.9895 17.249 71.9895 18.7748 72.8102 19.7137Z" fill="#F0EFEB"/>
<path d="M83.597 11.7339C83.0108 12.3207 81.9556 12.3207 81.3694 11.7339C80.7831 11.147 80.7831 10.3254 81.3694 9.7386C82.0728 9.15175 83.0108 9.15175 83.597 9.7386C84.1832 10.2081 84.1832 11.147 83.597 11.7339ZM83.8315 22.5319C83.128 22.5319 82.4246 22.4145 81.8383 21.945C81.3694 21.5929 81.1349 21.0061 81.1349 20.4192V14.0813C81.1349 13.9639 81.2521 13.7292 81.3694 13.7292C81.3694 13.7292 81.3694 13.7292 81.4866 13.7292H83.4797C83.7142 13.7292 83.8315 13.8465 83.8315 14.0813V19.5976C83.8315 20.0671 84.066 20.3018 84.4177 20.3018C84.6522 20.3018 84.7694 20.3018 84.8867 20.3018C85.1212 20.3018 85.2384 20.4192 85.2384 20.5366L85.4729 21.945C85.4729 22.0624 85.3557 22.2971 85.2384 22.2971C84.7694 22.4145 84.3005 22.5319 83.8315 22.5319Z" fill="#F0EFEB"/>
<path d="M92.7417 13.3744C94.0314 13.3744 95.2039 13.7265 96.1419 14.6655C97.9006 16.5434 97.9006 19.3602 96.1419 21.2381C95.2039 22.0597 94.0314 22.5292 92.7417 22.5292C91.9209 22.5292 90.983 22.2945 90.2795 21.7076V25.9329C90.2795 26.1676 90.1622 26.285 89.9277 26.285H87.9345C87.8173 26.285 87.5828 26.1676 87.5828 26.0503V25.9329V16.426C87.5828 16.0739 87.3483 15.8391 87.1138 15.7218C86.9965 15.7218 86.9965 15.7218 86.8793 15.7218H86.5275C86.293 15.7218 86.1758 15.6044 86.1758 15.487V14.0786C86.1758 13.8439 86.293 13.7265 86.4103 13.7265C86.762 13.6091 87.231 13.4918 87.7 13.4918C88.638 13.3744 89.4587 13.8439 89.8105 14.6655C90.6312 13.8439 91.6864 13.3744 92.7417 13.3744ZM90.8657 19.7123C91.6864 20.6513 93.0934 20.6513 94.0314 19.8297C94.0314 19.8297 94.0314 19.8297 94.1487 19.7123C94.6176 19.2429 94.8521 18.5386 94.8521 17.9518C94.8521 17.2476 94.6176 16.6607 94.1487 16.1913C93.3279 15.2523 91.9209 15.2523 90.983 16.0739C90.983 16.0739 90.983 16.0739 90.8657 16.1913C90.3967 16.6607 90.1622 17.3649 90.2795 17.9518C90.2795 18.5386 90.514 19.2429 90.8657 19.7123Z" fill="#F0EFEB"/>
<path d="M102.944 22.5322C101.888 22.5322 100.833 22.2975 99.8952 21.828C99.1918 21.3585 98.6055 20.6543 98.4883 19.7153C98.4883 19.4806 98.6055 19.3632 98.84 19.3632H100.599C100.716 19.3632 100.95 19.4806 100.95 19.598C101.185 20.1848 101.888 20.5369 102.826 20.5369C103.178 20.5369 103.53 20.5369 103.882 20.3022C104.116 20.1848 104.233 19.9501 104.233 19.7153C104.233 19.3632 103.999 19.2458 103.647 19.0111C103.178 18.8937 102.709 18.7764 102.24 18.7764C101.654 18.659 101.185 18.659 100.599 18.5416C100.13 18.4243 99.5435 18.1895 99.1918 17.72C98.371 16.6637 98.4883 15.0205 99.5435 14.199L99.6607 14.0816C100.481 13.4947 101.537 13.26 102.475 13.3774C103.413 13.3774 104.351 13.6121 105.289 14.0816C105.992 14.4337 106.461 15.1379 106.578 15.9595C106.578 16.1942 106.461 16.3116 106.227 16.3116H104.468C104.351 16.3116 104.233 16.1942 104.116 16.0769C103.999 15.8421 103.764 15.6074 103.53 15.49C103.53 15.2553 103.178 15.2553 102.826 15.2553C102.475 15.2553 102.123 15.2553 101.771 15.49C101.537 15.6074 101.419 15.8421 101.419 16.0769C101.419 16.429 101.654 16.6637 102.006 16.7811C102.475 16.8985 102.944 17.0158 103.413 17.1332C103.999 17.2506 104.468 17.2506 105.054 17.4853C105.523 17.6027 106.109 17.8374 106.461 18.3069C106.813 18.7764 107.047 19.3632 107.047 19.9501C107.047 20.7717 106.696 21.5932 105.992 21.9453C104.937 22.2975 103.999 22.5322 102.944 22.5322Z" fill="#F0EFEB"/>
<path d="M119.357 21.9445C119.357 22.0619 119.24 22.2966 119.123 22.2966C118.654 22.414 118.302 22.5313 117.833 22.5313C116.895 22.6487 116.074 22.2966 115.488 21.475C114.667 22.1792 113.612 22.5313 112.439 22.5313C111.384 22.5313 110.446 22.1792 109.743 21.475C109.039 20.7708 108.688 19.7145 108.688 18.6581V14.0807C108.688 13.846 108.805 13.7286 109.039 13.7286H111.032C111.267 13.7286 111.384 13.846 111.384 14.0807V18.306C111.384 18.7755 111.501 19.3624 111.853 19.7145C112.205 20.0666 112.674 20.3013 113.26 20.3013C113.729 20.3013 114.315 20.1839 114.667 19.8318C115.019 19.4797 115.253 19.0103 115.136 18.4234V14.0807C115.136 13.846 115.253 13.7286 115.488 13.7286H117.481C117.716 13.7286 117.833 13.846 117.833 14.0807V19.5971C117.833 20.0666 118.067 20.3013 118.419 20.3013C118.654 20.3013 118.771 20.3013 119.005 20.3013C119.123 20.3013 119.357 20.3013 119.357 20.5361C119.357 20.5361 119.357 20.5361 119.357 20.6534V21.9445Z" fill="#F0EFEB"/>
<path d="M137.999 21.9439C137.999 22.0613 137.999 22.296 137.765 22.296C137.296 22.4134 136.827 22.5308 136.475 22.5308C135.772 22.5308 135.068 22.4134 134.482 21.9439C134.013 21.5918 133.661 21.005 133.661 20.4181V17.7186C133.661 17.2491 133.544 16.6623 133.192 16.3102C132.841 15.9581 132.372 15.7233 131.903 15.7233C131.434 15.7233 130.965 15.8407 130.73 16.1928C130.378 16.5449 130.261 17.1318 130.261 17.6012V21.9439C130.261 22.1787 130.144 22.296 129.909 22.296H127.916C127.799 22.296 127.564 22.1787 127.564 22.0613C127.564 22.0613 127.564 22.0613 127.564 21.9439V17.7186C127.564 17.2491 127.447 16.6623 127.095 16.3102C126.861 15.9581 126.392 15.7233 125.923 15.7233C125.454 15.7233 124.985 15.8407 124.633 16.1928C124.281 16.5449 124.164 17.0144 124.164 17.6012V21.9439C124.164 22.0613 124.047 22.296 123.93 22.296C123.93 22.296 123.93 22.296 123.812 22.296H121.936C121.702 22.296 121.585 22.1787 121.585 21.9439V16.4276C121.585 16.0754 121.35 15.8407 121.116 15.7233C120.998 15.7233 120.998 15.7233 120.881 15.7233H120.529C120.295 15.7233 120.178 15.606 120.178 15.4886V14.0802C120.178 13.8454 120.295 13.7281 120.412 13.7281C120.764 13.6107 121.233 13.4933 121.702 13.4933C122.523 13.3759 123.343 13.8454 123.812 14.5496C124.633 13.8454 125.688 13.3759 126.744 13.4933C127.799 13.4933 128.854 13.8454 129.558 14.7844C130.378 13.9628 131.434 13.4933 132.606 13.4933C133.661 13.4933 134.599 13.8454 135.42 14.5496C136.123 15.2539 136.475 16.3102 136.475 17.3665V19.5965C136.475 20.066 136.71 20.3007 137.061 20.3007C137.296 20.3007 137.413 20.3007 137.648 20.3007C137.882 20.3007 137.999 20.4181 137.999 20.5355V21.9439Z" fill="#F0EFEB"/>
<path d="M0.468989 12.2024C2.57944 3.63443 11.373 -1.64719 19.932 0.465462C25.6772 1.87389 30.2498 6.4513 31.6568 12.2024H30.2498C27.9049 12.2024 25.5599 12.9066 23.5667 14.1977C23.4495 14.315 23.3322 14.315 23.215 14.4324H23.0977C22.9805 14.315 22.8632 14.315 22.746 14.1977C18.7596 11.4982 13.4834 11.4982 9.49703 14.1977C9.37978 14.315 9.26254 14.315 9.14529 14.4324H8.9108C8.79355 14.315 8.6763 14.315 8.55905 14.1977C6.56585 12.7892 4.33815 12.085 1.87596 12.2024H0.468989ZM27.6704 19.5967C28.3738 19.0098 29.3118 18.7751 30.2498 18.7751H32.1258V15.0193H30.2498C28.6083 15.0193 27.0841 15.4887 25.7944 16.4277C24.2702 17.484 22.277 17.484 20.7528 16.4277C18.0561 14.5498 14.4214 14.5498 11.6075 16.4277C10.0833 17.484 8.09006 17.484 6.56585 16.4277C5.27613 15.4887 3.63467 15.0193 1.9932 15.0193H0V18.7751H1.87596C2.81394 18.7751 3.63467 19.0098 4.4554 19.5967C7.15209 21.4746 10.7868 21.4746 13.6007 19.5967C14.3042 19.0098 15.2422 18.7751 16.1801 18.7751C17.1181 18.7751 17.9388 19.0098 18.7596 19.5967C21.339 21.4746 24.9737 21.4746 27.6704 19.5967ZM27.6704 26.2867C28.3738 25.6999 29.3118 25.4651 30.2498 25.4651H32.1258V21.7093H30.2498C28.6083 21.7093 27.0841 22.1788 25.7944 23.1177C24.2702 24.1741 22.277 24.1741 20.7528 23.1177C18.0561 21.2398 14.4214 21.2398 11.6075 23.1177C10.0833 24.1741 8.09006 24.1741 6.56585 23.1177C5.27613 22.1788 3.63467 21.7093 1.9932 21.7093H0V25.4651H1.87596C2.81394 25.4651 3.63467 25.6999 4.4554 26.2867C7.15209 28.1646 10.7868 28.1646 13.6007 26.2867C14.3042 25.6999 15.2422 25.4651 16.1801 25.4651C17.1181 25.4651 17.9388 25.6999 18.7596 26.2867C21.339 28.1646 24.9737 28.1646 27.6704 26.2867Z" fill="#F0EFEB"/>
</svg>
