<svg width="791" height="396" viewBox="0 0 791 396" fill="none" xmlns="http://www.w3.org/2000/svg">
<g clip-path="url(#clip0_60_628)">
<path d="M41.6197 353.827L-0.0112305 395.454L41.6197 437.08L83.2506 395.454L41.6197 353.827Z" fill="#071517"/>
<path d="M395.488 -0.0101374L353.857 41.6163L395.488 83.2427L437.119 41.6163L395.488 -0.0101374Z" fill="#071517"/>
<path d="M749.382 353.891L707.751 395.517L749.382 437.144L791.013 395.517L749.382 353.891Z" fill="#071517"/>
<path d="M203.016 202.905V275.755H275.873V202.905H203.016Z" fill="#071517"/>
<path d="M515.245 275.844V515.115L275.859 515.189V275.755L515.245 275.844Z" fill="#071517"/>
<path d="M130.158 400.63L83.2786 395.42L78.1123 348.605L156.092 270.634L202.927 275.844L208.123 322.674L130.158 400.63Z" fill="#071517"/>
<path d="M322.723 208.145L275.859 202.905L270.678 156.105L348.658 78.1334L395.566 83.2697L400.703 130.173L322.723 208.145Z" fill="#071517"/>
<path d="M634.952 520.34L588.102 515.115L582.921 468.3L660.887 390.343L707.751 395.524L712.932 442.368L634.952 520.34Z" fill="#071517"/>
<path d="M588.102 202.994H515.244V275.844H588.102V202.994Z" fill="#071517"/>
<path d="M390.312 130.1L395.566 83.2844L442.357 78.0745L520.366 156.075L515.156 202.92L468.336 208.115L390.312 130.1Z" fill="#071517"/>
<path d="M582.877 322.688L588.102 275.844L634.908 270.663L712.888 348.635L707.736 395.524L660.842 400.66L582.877 322.688Z" fill="#071517"/>
<path d="M78.0537 442.28L83.2789 395.435L130.099 390.255L208.138 468.285L202.928 515.115L156.092 520.31L78.0537 442.28Z" fill="#071517"/>
</g>
<defs>
<clipPath id="clip0_60_628">
<rect width="791" height="396" fill="white"/>
</clipPath>
</defs>
</svg>
