<svg width="594" height="594" viewBox="0 0 594 594" fill="none" xmlns="http://www.w3.org/2000/svg">
<g opacity="0.03" clip-path="url(#clip0_60_646)">
<path d="M31.2543 265.725L-0.00830078 296.986L31.2544 328.248L62.517 296.986L31.2543 265.725Z" fill="#071517"/>
<path d="M296.991 -0.00758573L265.728 31.2539L296.991 62.5154L328.253 31.2539L296.991 -0.00758573Z" fill="#071517"/>
<path d="M297.032 531.485L265.77 562.746L297.032 594.008L328.295 562.746L297.032 531.485Z" fill="#071517"/>
<path d="M562.747 265.772L531.484 297.034L562.747 328.295L594.01 297.034L562.747 265.772Z" fill="#071517"/>
<path d="M152.454 152.382V207.093H207.167V152.382H152.454Z" fill="#071517"/>
<path d="M386.922 207.159V386.852L207.156 386.907V207.093L386.922 207.159Z" fill="#071517"/>
<path d="M97.7417 300.874L62.5378 296.961L58.6582 261.803L117.217 203.246L152.388 207.159L156.289 242.328L97.7417 300.874Z" fill="#071517"/>
<path d="M242.349 156.317L207.156 152.382L203.265 117.235L261.824 58.6782L297.05 62.5356L300.907 97.7602L242.349 156.317Z" fill="#071517"/>
<path d="M386.922 386.852V441.562H441.634V386.852H386.922Z" fill="#071517"/>
<path d="M332.209 535.344L296.972 531.464L293.126 496.262L351.685 437.705L386.856 441.618L390.768 476.787L332.209 535.344Z" fill="#071517"/>
<path d="M476.816 390.776L441.634 386.852L437.744 351.694L496.291 293.148L531.484 297.039L535.375 332.219L476.816 390.776Z" fill="#071517"/>
<path d="M441.634 152.448H386.922V207.159H441.634V152.448Z" fill="#071517"/>
<path d="M293.104 97.705L297.05 62.5467L332.187 58.634L390.768 117.213L386.856 152.393L351.696 156.295L293.104 97.705Z" fill="#071517"/>
<path d="M437.71 242.339L441.634 207.159L476.783 203.268L535.342 261.825L531.473 297.039L496.258 300.896L437.71 242.339Z" fill="#071517"/>
<path d="M207.167 386.907H152.454V441.618H207.167V386.907Z" fill="#071517"/>
<path d="M58.6143 332.153L62.5381 296.972L97.6977 293.082L156.301 351.683L152.388 386.852L117.217 390.754L58.6143 332.153Z" fill="#071517"/>
<path d="M203.243 476.809L207.166 441.618L242.315 437.727L300.874 496.284L296.972 531.464L261.79 535.355L203.243 476.809Z" fill="#071517"/>
</g>
<defs>
<clipPath id="clip0_60_646">
<rect width="594" height="594" fill="white"/>
</clipPath>
</defs>
</svg>
